<svg xmlns="http://www.w3.org/2000/svg" viewBox="0 0 64 64"><defs><style>.cls-1{fill:#272835;}</style></defs><title>2-Happy</title><g id="_2-Happy" data-name="2-Happy"><path class="cls-1" d="M44,2H20A20,20,0,0,0,0,22v8A20,20,0,0,0,20,50h7V61a1,1,0,0,0,1.71.71L40.41,50H44A20,20,0,0,0,64,30V22A20,20,0,0,0,44,2ZM62,30A18,18,0,0,1,44,48H40a1,1,0,0,0-.71.29L29,58.59V49a1,1,0,0,0-1-1H20A18,18,0,0,1,2,30V22A18,18,0,0,1,20,4H44A18,18,0,0,1,62,22Z"/><path class="cls-1" d="M32,41A15,15,0,0,1,17,26H15a17,17,0,0,0,34,0H47A15,15,0,0,1,32,41Z"/><path class="cls-1" d="M23,21a5,5,0,1,0-5-5A5,5,0,0,0,23,21Zm0-8a3,3,0,1,1-3,3A3,3,0,0,1,23,13Z"/><path class="cls-1" d="M41,21a5,5,0,1,0-5-5A5,5,0,0,0,41,21Zm0-8a3,3,0,1,1-3,3A3,3,0,0,1,41,13Z"/><path class="cls-1" d="M17,9C16.89,9,6,9.14,6,21H8c0-9.84,8.63-10,9-10Z"/><rect class="cls-1" x="6" y="23" width="2" height="2"/></g></svg>